<svg width="24" height="24" viewBox="0 0 24 24" fill="none" xmlns="http://www.w3.org/2000/svg">
<path fill-rule="evenodd" clip-rule="evenodd" d="M10 0.600098C8.12223 0.600098 6.6 2.12233 6.6 4.0001V4.10011C6.6 4.65239 6.15228 5.10011 5.6 5.10011H3.76556C2.30302 5.10011 1.06936 6.18917 0.887953 7.64041L0.322094 12.1673C0.143088 13.5993 1.04432 14.9451 2.43666 15.3248L10.7107 17.5814C11.5548 17.8116 12.4452 17.8116 13.2893 17.5814L21.5633 15.3248C22.9557 14.9451 23.8569 13.5993 23.6779 12.1673L23.112 7.64041C22.9306 6.18917 21.697 5.10011 20.2344 5.10011H18.4C17.8477 5.10011 17.4 4.65239 17.4 4.10011V4.0001C17.4 2.12233 15.8778 0.600098 14 0.600098H10ZM14.6 5.10011C15.1523 5.10011 15.6 4.65239 15.6 4.10011V4.0001C15.6 3.11644 14.8837 2.4001 14 2.4001H10C9.11634 2.4001 8.4 3.11644 8.4 4.0001V4.10011C8.4 4.65239 8.84772 5.10011 9.4 5.10011H14.6ZM2.67405 7.86367C2.74286 7.3132 3.2108 6.90011 3.76556 6.90011H20.2344C20.7892 6.90011 21.2571 7.3132 21.3259 7.86367L21.8918 12.3905C21.9597 12.9337 21.6178 13.4442 21.0897 13.5882L12.8157 15.8448C12.2816 15.9904 11.7184 15.9904 11.1843 15.8448L2.91027 13.5882C2.38214 13.4442 2.0403 12.9337 2.10819 12.3905L2.67405 7.86367Z" fill="#E9E9E9"/>
<path d="M2 14.5V20C2 21.1046 2.89543 22 4 22H20C21.1046 22 22 21.1046 22 20V14.5" stroke="#E9E9E9" stroke-width="1.8" stroke-linecap="round" stroke-linejoin="round"/>
</svg>
