<svg width="24" height="24" viewBox="0 0 24 24" fill="none" xmlns="http://www.w3.org/2000/svg">
<path fill-rule="evenodd" clip-rule="evenodd" d="M3.4001 12.0001C3.4001 7.25045 7.25045 3.4001 12.0001 3.4001C16.7497 3.4001 20.6001 7.25045 20.6001 12.0001C20.6001 16.7497 16.7497 20.6001 12.0001 20.6001C7.25045 20.6001 3.4001 16.7497 3.4001 12.0001ZM12.0001 1.6001C6.25634 1.6001 1.6001 6.25634 1.6001 12.0001C1.6001 17.7439 6.25634 22.4001 12.0001 22.4001C17.7439 22.4001 22.4001 17.7439 22.4001 12.0001C22.4001 6.25634 17.7439 1.6001 12.0001 1.6001ZM17.1363 7.1368C17.2373 6.95995 17.0402 6.76287 16.8634 6.86392L11.4473 9.95885C10.8272 10.3132 10.3132 10.8271 9.95886 11.4473L6.86394 16.8634C6.76289 17.0402 6.95997 17.2373 7.13682 17.1363L12.5529 14.0413C13.1731 13.687 13.687 13.173 14.0414 12.5529L17.1363 7.1368Z" fill="#E9E9E9"/>
</svg>
