<svg width="24" height="24" viewBox="0 0 24 24" fill="none" xmlns="http://www.w3.org/2000/svg">
<path fill-rule="evenodd" clip-rule="evenodd" d="M12 23C18.0751 23 23 18.0751 23 12C23 5.92487 18.0751 1 12 1C5.92487 1 1 5.92487 1 12C1 18.0751 5.92487 23 12 23ZM13.2261 5.437C12.9995 5.165 12.6991 5.029 12.3251 5.029C11.9851 5.029 11.6791 5.165 11.4071 5.437C11.1351 5.709 10.9878 6.04333 10.9651 6.44C10.9538 6.82533 11.0615 7.154 11.2881 7.426C11.5261 7.68667 11.8378 7.817 12.2231 7.817C12.5971 7.817 12.9088 7.68667 13.1581 7.426C13.4075 7.154 13.5378 6.82533 13.5491 6.44C13.5718 6.04333 13.4641 5.709 13.2261 5.437ZM12.9541 9.857C12.7275 9.49433 12.3195 9.313 11.7301 9.313C11.3448 9.313 10.9991 9.40367 10.6931 9.585C10.3985 9.76633 10.1378 9.99867 9.91113 10.282C9.69579 10.554 9.52013 10.843 9.38412 11.149C9.24813 11.455 9.15746 11.727 9.11213 11.965L10.0301 12.237C10.1775 11.727 10.3191 11.3757 10.4551 11.183C10.5911 10.9903 10.7215 10.894 10.8461 10.894C10.9141 10.894 10.9765 10.9223 11.0331 10.979C11.0898 11.0243 11.1181 11.1433 11.1181 11.336C11.1181 11.608 11.0898 11.9537 11.0331 12.373C10.9765 12.781 10.9085 13.223 10.8291 13.699C10.7611 14.175 10.6988 14.6397 10.6421 15.093C10.5855 15.5463 10.5571 15.9373 10.5571 16.266C10.5571 16.8667 10.6705 17.337 10.8971 17.677C11.1351 18.017 11.5658 18.187 12.1891 18.187C12.5745 18.187 12.9145 18.0963 13.2091 17.915C13.5151 17.7337 13.7758 17.507 13.9911 17.235C14.2065 16.9517 14.3765 16.657 14.5011 16.351C14.6371 16.045 14.7278 15.773 14.7731 15.535L13.8551 15.263C13.7078 15.773 13.5661 16.1243 13.4301 16.317C13.2941 16.5097 13.1581 16.606 13.0221 16.606C12.9655 16.606 12.9088 16.5777 12.8521 16.521C12.7955 16.4643 12.7671 16.3453 12.7671 16.164C12.7671 15.9713 12.7955 15.6653 12.8521 15.246C12.9088 14.8267 12.9711 14.362 13.0391 13.852C13.1071 13.342 13.1695 12.8547 13.2261 12.39C13.2828 11.9253 13.3111 11.557 13.3111 11.285C13.3111 10.6843 13.1921 10.2083 12.9541 9.857Z" fill="#C9DA76"/>
</svg>
