<svg width="24" height="24" viewBox="0 0 24 24" fill="none" xmlns="http://www.w3.org/2000/svg">
<path fill-rule="evenodd" clip-rule="evenodd" d="M12 17.1C9.27416 17.1 6.40954 15.4953 4.07156 12C6.40954 8.50473 9.27416 6.90001 12 6.90001C14.7258 6.90001 17.5904 8.50472 19.9284 12C17.5904 15.4953 14.7258 17.1 12 17.1ZM21.7632 11.523C19.1548 7.34956 15.6531 5.10001 12 5.10001C8.34687 5.10001 4.84518 7.34956 2.23678 11.523C2.05438 11.8149 2.05438 12.1852 2.23678 12.477C4.84518 16.6505 8.34687 18.9 12 18.9C15.6531 18.9 19.1548 16.6505 21.7632 12.477C21.9456 12.1852 21.9456 11.8149 21.7632 11.523ZM11.9999 16C14.2091 16 15.9999 14.2091 15.9999 12C15.9999 9.79087 14.2091 8.00001 11.9999 8.00001C9.79081 8.00001 7.99995 9.79087 7.99995 12C7.99995 14.2091 9.79081 16 11.9999 16Z" fill="#E9E9E9"/>
</svg>
